<?xml version="1.0" encoding="UTF-8"?>
<svg version="1.1" xmlns="http://www.w3.org/2000/svg" width="782" height="782">
<path d="M0 0 C5.99547594 0.66616399 10.56421016 3.16295998 14.6875 7.5625 C17.7793164 11.47544921 19.10953453 15.60645793 20.375 20.375 C20.77012883 21.7293724 21.16589137 23.0835602 21.5625 24.4375 C21.9646875 25.8915625 21.9646875 25.8915625 22.375 27.375 C23.035 27.375 23.695 27.375 24.375 27.375 C24.7153125 25.7971875 24.7153125 25.7971875 25.0625 24.1875 C26.18659234 20.20869833 28.1711856 18.01814688 31.375 15.375 C32.035 15.375 32.695 15.375 33.375 15.375 C33.375 14.715 33.375 14.055 33.375 13.375 C36.015 13.375 38.655 13.375 41.375 13.375 C42.55323896 23.53333049 43.18568101 33.45145417 37.375 42.375 C35.46880265 44.34927583 33.64283963 45.76861359 31.375 47.375 C30.385 47.375 29.395 47.375 28.375 47.375 C28.7212345 54.22274891 30.67333903 58.18805425 34.5625 63.75 C35.56490895 65.23883869 36.56621707 66.72841917 37.56640625 68.21875 C38.04996582 68.9303125 38.53352539 69.641875 39.03173828 70.375 C40.76466341 72.95517497 42.39814432 75.58676807 44 78.25 C44.44601563 78.98992187 44.89203125 79.72984375 45.3515625 80.4921875 C50.69146662 90.31598058 47.10939503 105.24498732 44.375 115.375 C44.045 116.365 43.715 117.355 43.375 118.375 C44.921875 117.385 44.921875 117.385 46.5 116.375 C49.92039261 114.41850767 52.38604188 113.81840119 56.375 114.375 C58.72520498 116.72520498 58.69414802 117.29409622 58.75 120.5 C58.59393073 127.43393462 55.23915734 133.51084266 50.375 138.375 C46.24457436 140.97785087 43.32162578 142.375 38.375 142.375 C40.27734808 158.44656135 48.80283323 172.36761494 56.375 186.375 C56.705 186.375 57.035 186.375 57.375 186.375 C57.57802734 184.9209375 57.57802734 184.9209375 57.78515625 183.4375 C59.88842583 169.85345646 64.5464923 157.76192028 72.375 146.375 C71.43527344 145.94960938 71.43527344 145.94960938 70.4765625 145.515625 C66.89616069 143.57235859 65.78161356 140.38044443 64.30078125 136.71875 C63.19857104 132.73777136 63.11612186 129.22736467 63.1875 125.125 C63.1884668 124.04605469 63.1884668 124.04605469 63.18945312 122.9453125 C63.23401786 117.65696429 63.23401786 117.65696429 64.375 115.375 C65.035 115.375 65.695 115.375 66.375 115.375 C66.375 114.715 66.375 114.055 66.375 113.375 C69.125 113.0625 69.125 113.0625 72.375 113.375 C77.54518343 117.93692655 79.86801348 125.78383676 81.375 132.375 C82.64971705 130.81566679 83.91960214 129.25238294 85.1875 127.6875 C85.89519531 126.81738281 86.60289062 125.94726562 87.33203125 125.05078125 C89.22229646 122.57500368 90.83167401 120.07703762 92.375 117.375 C91.78332031 116.87871094 91.19164062 116.38242187 90.58203125 115.87109375 C84.45610158 110.60459303 79.98517036 106.01415049 76.66015625 98.63671875 C76.35480957 97.95939697 76.04946289 97.2820752 75.73486328 96.58422852 C75.12688123 95.21039507 74.53494392 93.82933225 73.96044922 92.44116211 C72.46805889 88.73851755 72.46805889 88.73851755 69.39453125 86.44140625 C68.72808594 86.41949219 68.06164062 86.39757812 67.375 86.375 C60.34766386 86.02363319 56.51040992 84.22574196 51.375 79.375 C47.39163297 74.77880727 46.31203443 70.35672885 46.375 64.375 C48.22325697 62.52674303 51.1491053 63.20137833 53.625 63.1875 C54.76453125 63.17332031 55.9040625 63.15914063 57.078125 63.14453125 C60.3199055 63.37114861 62.42381743 64.10702171 65.375 65.375 C65.45540527 64.41198975 65.53581055 63.44897949 65.61865234 62.45678711 C65.92104405 58.85737143 66.23262422 55.25879846 66.546875 51.66040039 C66.68118906 50.10787841 66.81306636 48.5551435 66.94238281 47.00219727 C67.12953552 44.75996392 67.32566627 42.51866252 67.5234375 40.27734375 C67.57873627 39.59163803 67.63403503 38.90593231 67.69100952 38.19944763 C68.1549387 33.08745344 68.71959076 27.70762211 71.75 23.4375 C73.375 22.375 73.375 22.375 77.375 22.375 C77.7153125 21.075625 77.7153125 21.075625 78.0625 19.75 C80.50817562 13.46111982 85.30452202 8.38440717 91.375 5.375 C95.87181366 4.85037174 97.58758732 4.85005821 101.375 7.375 C103.42427559 15.39390449 100.03736245 22.23088194 96.4921875 29.2109375 C93.76092217 33.29271778 90.90598329 36.60893315 86.0390625 38.08203125 C85.36617187 38.11683594 84.69328125 38.15164062 84 38.1875 C82.205625 38.2803125 82.205625 38.2803125 80.375 38.375 C79.9375 35.6875 79.9375 35.6875 80.375 32.375 C82.04435051 31.13117021 83.72594705 29.89722396 85.48828125 28.7890625 C89.56387392 25.73447751 91.87715912 21.2131817 93.1875 16.375 C93.249375 15.715 93.31125 15.055 93.375 14.375 C92.7975 14.66375 92.22 14.9525 91.625 15.25 C89.375 16.375 89.375 16.375 87.1875 17.1875 C85.14610845 18.24032196 85.14610845 18.24032196 84.75 20.625 C84.62625 21.5325 84.5025 22.44 84.375 23.375 C83.5 26.625 83.5 26.625 82.375 29.375 C81.385 29.705 80.395 30.035 79.375 30.375 C73.67145783 41.78208434 74.78388231 63.65067897 78.375 75.375 C82.04493656 86.3550717 86.82701615 97.73124822 95.125 105.9921875 C96.375 107.375 96.375 107.375 96.375 109.375 C97.035 109.375 97.695 109.375 98.375 109.375 C98.75978516 108.37339844 98.75978516 108.37339844 99.15234375 107.3515625 C100.91138319 103.06917255 102.91419245 98.9091581 104.89648438 94.7265625 C106.19704832 91.96528023 107.40873306 89.27380083 108.375 86.375 C109.035 86.375 109.695 86.375 110.375 86.375 C110.375 85.385 110.375 84.395 110.375 83.375 C109.4675 83.271875 108.56 83.16875 107.625 83.0625 C104.31372634 82.36203826 102.78396394 81.69474305 100.375 79.375 C100.045 78.385 99.715 77.395 99.375 76.375 C98.715 76.045 98.055 75.715 97.375 75.375 C97.375 74.055 97.375 72.735 97.375 71.375 C96.715 71.375 96.055 71.375 95.375 71.375 C93.66244523 66.1622835 93.03697108 61.59840015 93.0625 56.125 C93.04638672 55.41859375 93.03027344 54.7121875 93.01367188 53.984375 C93.01092555 51.0842564 93.05360642 48.90337521 94.58203125 46.390625 C97.09634221 44.96639657 98.52675744 44.88511962 101.375 45.375 C106.58322258 49.65214368 110.33494115 55.42155143 113.375 61.375 C113.705 61.375 114.035 61.375 114.375 61.375 C114.705 58.405 115.035 55.435 115.375 52.375 C121.125 52.25 121.125 52.25 123.375 53.375 C123.75797872 73.90691489 123.75797872 73.90691489 121.375 83.375 C122.96388299 82.15301556 124.54586464 80.92205525 126.125 79.6875 C127.44757813 78.66076172 127.44757813 78.66076172 128.796875 77.61328125 C131.46614488 75.43363862 131.46614488 75.43363862 133.578125 72.60546875 C134.17109375 71.86941406 134.7640625 71.13335937 135.375 70.375 C136.035 70.375 136.695 70.375 137.375 70.375 C137.4884375 69.859375 137.601875 69.34375 137.71875 68.8125 C138.92239273 64.34182699 140.63456991 60.03478491 142.21875 55.6875 C143.07162009 53.24414244 143.82032771 50.89623769 144.375 48.375 C143.7975 48.1275 143.22 47.88 142.625 47.625 C139.06404401 45.64669112 136.95242578 43.52985156 135.125 39.875 C133.17291272 30.76525934 134.21888043 22.09112296 137.375 13.375 C137.705 13.045 138.035 12.715 138.375 12.375 C141.6953125 12.421875 141.6953125 12.421875 145.375 13.375 C147.5546875 16.140625 147.5546875 16.140625 149.25 19.625 C149.82492187 20.76453125 150.39984375 21.9040625 150.9921875 23.078125 C153.19764671 28.33633848 153.48643251 32.69194206 153.375 38.375 C154.035 38.375 154.695 38.375 155.375 38.375 C155.375 37.385 155.375 36.395 155.375 35.375 C162.35090919 30.44253896 167.94064064 29.7327899 176.375 30.375 C176.20858104 39.45239769 175.15051187 45.68164747 168.55859375 52.16015625 C164.56677496 55.68529059 162.18079198 57.51508274 156.75 57.4375 C155.52410156 57.42396484 155.52410156 57.42396484 154.2734375 57.41015625 C153.64695312 57.39855469 153.02046875 57.38695312 152.375 57.375 C152.00375 59.1075 152.00375 59.1075 151.625 60.875 C150.20260175 66.59507296 147.63081401 71.49127899 144.375 76.375 C143.715 76.375 143.055 76.375 142.375 76.375 C142.22804688 77.25671875 142.22804688 77.25671875 142.078125 78.15625 C141.23541946 80.81545414 140.130566 81.95663253 138.125 83.875 C137.25101562 84.72578125 137.25101562 84.72578125 136.359375 85.59375 C132.25212989 89.28056844 129.06225084 91.52151061 123.8125 93.25 C115.24598181 97.34931545 112.34251903 105.68799947 108.2421875 113.8203125 C105.93060497 118.40487397 103.42102755 122.62126704 100.375 126.75 C99.97812988 127.28931152 99.58125977 127.82862305 99.17236328 128.38427734 C97.43054973 130.71483364 95.65224511 133.01627584 93.87304688 135.31835938 C87.39918332 143.70149123 81.71769974 151.64630929 77.375 161.375 C76.85292969 162.39851562 76.33085937 163.42203125 75.79296875 164.4765625 C70.30086505 175.46076989 68.15445544 186.32510038 68.0625 198.5 C68.05686035 199.2105957 68.0512207 199.92119141 68.04541016 200.65332031 C68.10181087 204.65107947 68.61728277 207.77553124 70.375 211.375 C70.725625 210.385 71.07625 209.395 71.4375 208.375 C73.68106759 203.12932531 77.47679887 198.12961693 82.39453125 195.15234375 C85.09759068 194.09137959 87.5022267 194.2444194 90.375 194.375 C90.375 195.035 90.375 195.695 90.375 196.375 C91.035 196.375 91.695 196.375 92.375 196.375 C91.5473176 216.43916309 91.5473176 216.43916309 85.375 224.375 C84.19479729 225.28571293 82.98925822 226.16415672 81.765625 227.015625 C81.13172852 227.45938477 80.49783203 227.90314453 79.84472656 228.36035156 C79.11721191 228.86260254 79.11721191 228.86260254 78.375 229.375 C78.75011719 230.30054688 79.12523437 231.22609375 79.51171875 232.1796875 C84.56078496 245.23001522 87.0112623 258.61931569 89.375 272.375 C89.41987549 271.60422119 89.46475098 270.83344238 89.51098633 270.03930664 C89.72394003 266.50448742 89.95557744 262.97112333 90.1875 259.4375 C90.29288086 257.61895508 90.29288086 257.61895508 90.40039062 255.76367188 C90.87267401 248.79276915 91.81198107 242.88436589 94.375 236.375 C96.025 236.375 97.675 236.375 99.375 236.375 C99.375 242.315 99.375 248.255 99.375 254.375 C99.79910156 253.16585937 100.22320312 251.95671875 100.66015625 250.7109375 C103.47225747 242.82444087 106.30310003 235.14615185 110.25 227.75 C114.63986806 219.21744113 115.33167912 213.29310506 112.4375 204.09375 C110.6961687 199.63799048 108.8643216 195.71923546 105.375 192.375 C102.81565084 191.25503204 100.37775728 190.59136083 97.65625 189.9765625 C94.6166745 189.17503061 93.11201541 187.98052311 91.375 185.375 C91.375 184.055 91.375 182.735 91.375 181.375 C90.385 181.045 89.395 180.715 88.375 180.375 C86.58101743 176.85603419 85.8788814 173.31560198 85.25 169.4375 C85.08242187 168.43847656 84.91484375 167.43945312 84.7421875 166.41015625 C84.37254067 163.3546713 84.24074938 160.44933918 84.375 157.375 C85.375 156.375 85.375 156.375 88.9375 156 C94.73992503 156.05218008 99.03064323 159.11531526 103.10546875 163.04296875 C103.52441406 163.48253906 103.94335938 163.92210937 104.375 164.375 C104.5915625 162.76625 104.5915625 162.76625 104.8125 161.125 C105.21249442 158.45837051 105.65091924 155.96100271 106.375 153.375 C108.025 153.375 109.675 153.375 111.375 153.375 C111.705 157.335 112.035 161.295 112.375 165.375 C112.705 164.715 113.035 164.055 113.375 163.375 C114.035 163.375 114.695 163.375 115.375 163.375 C115.6225 162.818125 115.87 162.26125 116.125 161.6875 C117.375 159.375 117.375 159.375 119.25 157.0625 C124.61962879 150.27149889 126.32363606 145.96724385 125.375 137.375 C124.80827625 133.77422002 124.16607318 130.18841816 123.44311523 126.61572266 C122.49103402 121.77912752 122.15715289 117.30923694 122.375 112.375 C123.375 111.375 123.375 111.375 126.4375 111.3125 C127.406875 111.333125 128.37625 111.35375 129.375 111.375 C130.91932024 117.43348711 132.32535707 123.51597301 133.69140625 129.6171875 C134.25288821 132.31317896 134.25288821 132.31317896 135.375 134.375 C135.94347656 134.07464844 136.51195312 133.77429688 137.09765625 133.46484375 C142.41495763 130.8461394 145.60138532 129.81131269 151.375 131.375 C152.375 132.375 152.375 132.375 152.6875 136.3125 C152.58700133 143.31390702 150.34686903 149.06647041 145.8125 154.375 C141.7829799 156.71944806 138.42877193 157.14297461 133.8671875 157.7734375 C130.4058384 158.60893556 129.22854212 160.44022498 127.375 163.375 C126.385 163.375 125.395 163.375 124.375 163.375 C124.2925 164.096875 124.21 164.81875 124.125 165.5625 C123.22153072 168.95050981 121.56003909 170.66025446 119.375 173.375 C116.80849668 178.76465698 116.57330847 184.52503306 117.375 190.375 C118.43272129 193.11563844 119.68877791 195.57875708 121.12890625 198.13671875 C122.60192972 200.78261984 123.53443776 203.47123953 124.375 206.375 C127.41694289 205.7417772 127.41694289 205.7417772 128.25 203.75 C128.806875 202.574375 128.806875 202.574375 129.375 201.375 C130.179375 200.364375 130.98375 199.35375 131.8125 198.3125 C135.12660206 193.82179366 136.179731 188.7488517 137.375 183.375 C139.025 183.045 140.675 182.715 142.375 182.375 C143.035 183.365 143.695 184.355 144.375 185.375 C153.00847762 174.42739435 155.8853248 160.81924609 158.375 147.375 C158.63925781 146.17488281 158.90351563 144.97476563 159.17578125 143.73828125 C160.5987163 136.38512526 160.65247194 131.90814674 156.63671875 125.4609375 C152.0780899 117.92438083 153.61473146 105.29438465 154.90625 96.9375 C156.15893464 92.25354872 156.15893464 92.25354872 157.375 90.375 C159.484375 89.6328125 159.484375 89.6328125 161.375 89.375 C161.4575 88.34375 161.54 87.3125 161.625 86.25 C162.83165569 80.01561229 165.57770112 76.71744057 170.625 73.0625 C174.97337787 70.32410005 178.24222082 69.375 183.375 69.375 C185.90910943 71.90910943 185.70052882 72.9200988 185.75 76.4375 C185.61715939 82.06108591 184.78092786 86.78936529 181.375 91.375 C176.99856578 94.820278 172.91048196 95.76119642 167.375 95.375 C165.89 95.87 165.89 95.87 164.375 96.375 C163.18647682 104.54609686 162.51993736 111.49818687 165.375 119.375 C165.82230469 118.62734375 166.26960938 117.8796875 166.73046875 117.109375 C167.33503906 116.12453125 167.93960937 115.1396875 168.5625 114.125 C169.45001953 112.66320312 169.45001953 112.66320312 170.35546875 111.171875 C172.44931137 108.27208522 174.40414987 106.35556675 177.375 104.375 C180.1875 104.625 180.1875 104.625 182.375 105.375 C182.17835701 111.17596833 181.12644075 115.27524416 178.5625 120.5 C173.07435388 131.77827157 170.86082944 144.15300527 168.375 156.375 C169.035 156.375 169.695 156.375 170.375 156.375 C170.375 155.715 170.375 155.055 170.375 154.375 C171.035 154.375 171.695 154.375 172.375 154.375 C172.375 153.715 172.375 153.055 172.375 152.375 C174.2734375 150.6484375 174.2734375 150.6484375 176.75 148.75 C177.56210937 148.11835938 178.37421875 147.48671875 179.2109375 146.8359375 C181.375 145.375 181.375 145.375 183.375 145.375 C185.71803433 139.09140792 186.97537136 133.1211857 187.90234375 126.484375 C188.4793385 122.68860791 189.35942439 119.07459686 190.375 115.375 C192.04111905 115.332279 193.70882885 115.33436168 195.375 115.375 C196.375 116.375 196.375 116.375 196.47265625 119.31640625 C196.45525391 121.10884766 196.45525391 121.10884766 196.4375 122.9375 C196.42847656 124.13503906 196.41945313 125.33257812 196.41015625 126.56640625 C196.39275391 127.95666016 196.39275391 127.95666016 196.375 129.375 C203.12588305 120.26355912 203.12588305 120.26355912 204.375 109.375 C203.37574235 107.76329411 202.37254962 106.15314021 201.31640625 104.578125 C198.75070095 98.57373584 199.41192912 90.53403852 201.28125 84.40234375 C202.21106651 82.30693583 203.18622228 80.333299 204.375 78.375 C205.365 78.375 206.355 78.375 207.375 78.375 C207.375 77.385 207.375 76.395 207.375 75.375 C209.355 75.375 211.335 75.375 213.375 75.375 C217.47521175 83.09865469 219.53513598 90.96532655 217.6875 99.6875 C216.31617901 103.54025897 214.80829884 106.13060155 212.375 109.375 C213.035 110.035 213.695 110.695 214.375 111.375 C215.179375 111.045 215.98375 110.715 216.8125 110.375 C224.42191782 108.23902307 230.22119827 109.25334106 237.375 112.375 C237.375 113.035 237.375 113.695 237.375 114.375 C238.035 114.375 238.695 114.375 239.375 114.375 C239.86380298 119.72892014 239.86380298 119.72892014 237.6875 122.60546875 C230.11650978 129.012675 224.63130417 131.72335814 214.671875 131.67578125 C212.19883189 131.35193037 210.52432648 130.61234162 208.375 129.375 C208.01921875 130.43267578 208.01921875 130.43267578 207.65625 131.51171875 C206.14997827 134.87786868 204.21915483 137.34483173 201.875 140.1875 C201.0809375 141.16332031 200.286875 142.13914062 199.46875 143.14453125 C198.7778125 143.88058594 198.086875 144.61664063 197.375 145.375 C196.715 145.375 196.055 145.375 195.375 145.375 C195.18550781 145.91898438 194.99601562 146.46296875 194.80078125 147.0234375 C192.70162317 150.48561055 189.74718031 152.55677859 186.5625 155 C185.94568359 155.48984375 185.32886719 155.9796875 184.69335938 156.484375 C181.38697302 159.05639924 178.41140789 161.06797268 174.375 162.375 C174.375 163.035 174.375 163.695 174.375 164.375 C172.98281716 165.36856639 171.56010107 166.31949898 170.125 167.25 C165.13189291 170.97526485 163.75031746 174.58209878 162.2265625 180.5078125 C161.32894249 183.53007436 160.20534162 185.81252174 158.375 188.375 C157.715 188.375 157.055 188.375 156.375 188.375 C156.27574219 188.96925781 156.17648437 189.56351563 156.07421875 190.17578125 C154.84410271 194.04480545 151.69618371 196.21284163 148.375 198.375 C146.3825675 198.75093066 144.3831326 199.09479545 142.375 199.375 C141.14103959 201.0892289 141.14103959 201.0892289 140.375 203.375 C139.06018243 205.3872208 137.72833419 207.38847933 136.375 209.375 C137.365 209.55675781 138.355 209.73851562 139.375 209.92578125 C146.27772112 211.2280661 152.88754747 212.5946632 159.375 215.375 C159.6875 218.625 159.6875 218.625 159.375 222.375 C157.125 224.8125 157.125 224.8125 154.375 226.375 C153.055 226.375 151.735 226.375 150.375 226.375 C150.375 227.035 150.375 227.695 150.375 228.375 C142.08832863 230.38439326 134.81343527 230.26199462 126.375 229.375 C125.385 229.375 124.395 229.375 123.375 229.375 C111.64319124 251.52861406 107.70740143 272.62410483 105.375 297.375 C107.20611328 297.56835938 107.20611328 297.56835938 109.07421875 297.765625 C119.75430835 299.12794125 125.56433663 305.1081044 131.9453125 313.19921875 C132.74710938 314.24722656 133.54890625 315.29523438 134.375 316.375 C134.97054687 317.14457031 135.56609375 317.91414063 136.1796875 318.70703125 C139.375 322.99452684 139.375 322.99452684 139.375 325.375 C139.97183594 325.3028125 140.56867188 325.230625 141.18359375 325.15625 C147.16021447 324.51684927 153.1181691 324.21411629 159.125 324.125 C159.83325928 324.10373047 160.54151855 324.08246094 161.27124023 324.06054688 C174.51687501 323.97382227 185.27794012 333.78695782 194.375 342.375 C195.49930895 343.40062667 196.62571936 344.42395309 197.75390625 345.4453125 C198.91941857 346.50504587 200.08478459 347.56494017 201.25 348.625 C201.79760986 349.12016113 202.34521973 349.61532227 202.90942383 350.12548828 C210.91737448 357.47506508 210.91737448 357.47506508 211.94140625 361.7265625 C211.93947266 362.85191406 211.93947266 362.85191406 211.9375 364 C211.97037109 365.13308594 211.97037109 365.13308594 212.00390625 366.2890625 C211.375 368.375 211.375 368.375 209.18920898 369.91162109 C206.32786602 371.3995095 203.85947755 372.17474489 200.71875 372.875 C199.62498047 373.12072754 198.53121094 373.36645508 197.40429688 373.61962891 C196.23962891 373.86890137 195.07496094 374.11817383 193.875 374.375 C192.66392578 374.63845215 191.45285156 374.9019043 190.20507812 375.17333984 C180.56731698 377.22206266 170.93751778 378.74825515 161.16992188 380.00097656 C158.09209434 380.41285914 155.02318349 380.86970304 151.953125 381.3359375 C150.25446289 381.59383057 150.25446289 381.59383057 148.52148438 381.85693359 C146.38184156 382.18329372 144.24247662 382.51148592 142.10351562 382.84228516 C139.26138237 383.27074075 136.41724292 383.67850477 133.56982422 384.07022095 C131.97501156 384.29168082 130.38103492 384.51918731 128.78759766 384.75033569 C112.98049019 387.01497644 97.4716289 387.82183733 81.50927734 387.71118164 C77.87705236 387.68751337 74.24556457 387.69066503 70.61328125 387.69726562 C9.78041955 387.62614911 9.78041955 387.62614911 -7.36328125 375.10546875 C-9.8444301 371.70253086 -8.79707911 367.68620235 -8.3671875 363.703125 C-7.15715222 358.27707208 -4.35106899 355.36059618 -0.625 351.375 C0.40590345 350.15492116 1.43011541 348.92917106 2.44921875 347.69921875 C16.77792246 330.49718517 16.77792246 330.49718517 25.9375 329.4375 C29.49528274 329.24859118 32.60274752 329.41149648 36.12890625 329.9765625 C40.11682792 330.58018334 43.37564885 330.95833078 47.375 330.375 C49.93114083 328.15605221 51.79718298 325.90467116 53.734375 323.14013672 C57.82193293 317.35678545 62.70324165 314.53351006 69.375 312.375 C72.04306778 311.9254688 74.67878573 311.63882312 77.375 311.375 C75.06932065 300.60369198 71.78687195 290.18944663 68.3125 279.75 C68.09321838 279.08643494 67.87393677 278.42286987 67.64801025 277.73919678 C67.00922546 275.8111816 66.36340681 273.88568291 65.71484375 271.9609375 C65.33706787 270.8373584 64.95929199 269.7137793 64.57006836 268.55615234 C63.4203752 265.31461198 63.4203752 265.31461198 61.72875977 262.15087891 C60.375 259.375 60.375 259.375 60.375 256.375 C59.385 256.045 58.395 255.715 57.375 255.375 C53.375 250.91785714 53.375 250.91785714 53.375 248.375 C46.47320637 244.34895372 39.58670978 244.1220106 31.875 244.75 C31.05257812 244.80671875 30.23015625 244.8634375 29.3828125 244.921875 C27.37939034 245.06164864 25.37704497 245.21671867 23.375 245.375 C23.39240234 245.98335693 23.40980469 246.59171387 23.42773438 247.21850586 C23.44126953 248.02167236 23.45480469 248.82483887 23.46875 249.65234375 C23.48615234 250.44632568 23.50355469 251.24030762 23.52148438 252.05834961 C23.31607351 255.30692245 22.06082452 257.63553516 20.375 260.375 C19.715 260.375 19.055 260.375 18.375 260.375 C18.189375 260.9525 18.00375 261.53 17.8125 262.125 C15.71045168 265.41516259 12.97696618 267.07991103 9.375 268.375 C6.33929502 268.68338908 3.41305184 268.62300423 0.375 268.375 C-1.11976877 262.12414878 -0.18621062 257.26095196 2.375 251.375 C3.89215769 249.10151445 5.45717725 247.3446558 7.375 245.375 C6.68535156 245.15585937 5.99570313 244.93671875 5.28515625 244.7109375 C-1.08714692 242.56061297 -7.7471975 240.19258272 -12.625 235.375 C-12.625 234.055 -12.625 232.735 -12.625 231.375 C-7 230.25 -7 230.25 -3.625 231.375 C-3.625 232.035 -3.625 232.695 -3.625 233.375 C-1.8925 233.560625 -1.8925 233.560625 -0.125 233.75 C2.80231257 234.1037383 5.31634805 234.6373429 8.1875 235.4375 C17.51810259 237.8518388 27.05954468 236.03371382 36.375 234.375 C28.99687411 228.13562022 21.45403982 222.50502831 13.0625 217.6875 C12.33498535 217.2538916 11.6074707 216.8202832 10.85791016 216.37353516 C3.7836494 212.44836853 -1.95822717 212.52055609 -9.66796875 214.6171875 C-11.38681541 215.14868159 -13.10170973 215.69311899 -14.8125 216.25 C-16.10704102 216.65412109 -16.10704102 216.65412109 -17.42773438 217.06640625 C-21.84369319 218.4516726 -26.23940148 219.89638577 -30.625 221.375 C-30.72296875 222.46039063 -30.8209375 223.54578125 -30.921875 224.6640625 C-31.07204676 226.10946565 -31.22313732 227.55477353 -31.375 229 C-31.436875 229.71285156 -31.49875 230.42570313 -31.5625 231.16015625 C-32.36204865 238.42272312 -35.60298983 242.82529607 -41.125 247.5625 C-41.8778125 248.21605469 -42.630625 248.86960937 -43.40625 249.54296875 C-44.1384375 250.14753906 -44.870625 250.75210938 -45.625 251.375 C-46.64013672 252.22771484 -46.64013672 252.22771484 -47.67578125 253.09765625 C-50.62255285 255.02870698 -53.19928079 254.63354485 -56.625 254.375 C-58.57055311 252.42944689 -57.84434462 248.95005213 -57.875 246.375 C-57.86933971 236.80344452 -56.2480983 230.35610361 -49.625 223.375 C-51.5121875 223.2203125 -51.5121875 223.2203125 -53.4375 223.0625 C-59.0101218 222.45909509 -64.26460058 220.96809067 -69.625 219.375 C-69.66625 220.261875 -69.7075 221.14875 -69.75 222.0625 C-70.68480303 225.60139718 -71.86928809 226.98076361 -74.6640625 229.296875 C-80.42066595 232.46186016 -86.30216018 232.68890665 -92.6875 232.625 C-93.46416016 232.63273438 -94.24082031 232.64046875 -95.04101562 232.6484375 C-105.38660259 232.61339741 -105.38660259 232.61339741 -108.625 229.375 C-108.28351467 222.11624774 -105.41894873 219.38685214 -100.30859375 214.6171875 C-94.02602323 209.36799466 -87.88482586 207.0531886 -79.625 207.375 C-73.91856166 208.35218094 -68.49831593 210.03922354 -63.0625 212 C-58.0239107 213.76906352 -52.92734324 214.08758326 -47.625 214.375 C-47.625 212.725 -47.625 211.075 -47.625 209.375 C-48.285 209.375 -48.945 209.375 -49.625 209.375 C-50.285 207.395 -50.945 205.415 -51.625 203.375 C-52.285 203.375 -52.945 203.375 -53.625 203.375 C-53.625 202.715 -53.625 202.055 -53.625 201.375 C-54.945 201.045 -56.265 200.715 -57.625 200.375 C-56.965 202.355 -56.305 204.335 -55.625 206.375 C-54.965 206.375 -54.305 206.375 -53.625 206.375 C-53.625 207.035 -53.625 207.695 -53.625 208.375 C-52.635 208.705 -51.645 209.035 -50.625 209.375 C-51.285 210.695 -51.945 212.015 -52.625 213.375 C-57.46496827 212.43242412 -60.36447499 209.99214493 -63.625 206.375 C-66.91062217 201.30692781 -69.43935502 196.56409811 -68.625 190.375 C-62.01122203 189.90445453 -57.90093407 189.91976679 -52.625 194.375 C-52.05007812 194.79910156 -51.47515625 195.22320312 -50.8828125 195.66015625 C-46.09973542 199.34497314 -42.76859233 203.69497424 -40.625 209.375 C-40.59156552 211.04133127 -40.58758918 212.70875326 -40.625 214.375 C-36.31094053 213.06758809 -31.99903059 211.7532253 -27.6875 210.4375 C-26.45580078 210.06431641 -25.22410156 209.69113281 -23.95507812 209.30664062 C-22.78525391 208.94892578 -21.61542969 208.59121094 -20.41015625 208.22265625 C-19.32613525 207.89273682 -18.24211426 207.56281738 -17.12524414 207.22290039 C-14.7129236 206.61044088 -14.7129236 206.61044088 -13.625 205.375 C-14.24842285 205.11920166 -14.8718457 204.86340332 -15.51416016 204.59985352 C-39.36222949 194.73676311 -55.54920062 182.53005345 -73.625 164.375 C-74.429375 163.570625 -75.23375 162.76625 -76.0625 161.9375 C-76.578125 161.421875 -77.09375 160.90625 -77.625 160.375 C-78.470625 161.2 -79.31625 162.025 -80.1875 162.875 C-85.95502933 166.90880308 -92.91476389 166.47154335 -99.625 165.375 C-116.24912433 161.30897214 -116.24912433 161.30897214 -119.625 156.375 C-119.625 152.7118606 -119.168925 150.9715629 -116.6875 148.25 C-109.616305 143.92069694 -102.86835987 141.90682967 -94.625 141.375 C-94.97433594 140.80652344 -95.32367188 140.23804688 -95.68359375 139.65234375 C-98.54747031 134.79267786 -100.04434771 131.06539249 -100.625 125.375 C-101.285 124.715 -101.945 124.055 -102.625 123.375 C-103.95557779 119.78243996 -103.76525602 116.16191246 -103.625 112.375 C-103.295 111.715 -102.965 111.055 -102.625 110.375 C-95.04973789 110.375 -90.35021603 114.8235377 -84.625 119.375 C-83.73683594 120.04917969 -82.84867188 120.72335937 -81.93359375 121.41796875 C-78.55322726 124.28355862 -76.84812762 127.11823948 -75.625 131.375 C-75.60080297 133.37528763 -75.64658066 135.37724112 -75.75 137.375 C-75.96537565 143.98537558 -73.966019 146.65122448 -69.625 151.375 C-68.43491092 152.95638821 -67.24758316 154.53985692 -66.0625 156.125 C-56.13047318 168.41282066 -42.94861729 179.61286997 -28.625 186.375 C-31.351805 169.10523502 -36.13725071 150.56519943 -50.4375 139.125 C-51.159375 138.5475 -51.88125 137.97 -52.625 137.375 C-52.625 136.715 -52.625 136.055 -52.625 135.375 C-53.285 135.375 -53.945 135.375 -54.625 135.375 C-57.45758179 132.39649733 -59.49964318 129.5533541 -59.9375 125.4375 C-59.834375 124.756875 -59.73125 124.07625 -59.625 123.375 C-54.36340541 122.73334212 -51.93907151 124.16922999 -47.9453125 127.28125 C-47.50960937 127.6421875 -47.07390625 128.003125 -46.625 128.375 C-46.521875 127.09625 -46.41875 125.8175 -46.3125 124.5 C-45.56486229 117.83444129 -44.37990596 110.40032715 -39.625 105.375 C-36.88020403 104.57258989 -34.39924013 104.71916499 -31.625 105.375 C-26.58151126 110.75472133 -26.17295372 119.5631012 -26.30078125 126.61328125 C-26.80379736 130.89800888 -28.15213018 134.81869892 -30.625 138.375 C-31.615 138.705 -32.605 139.035 -33.625 139.375 C-33.00503922 140.66909289 -32.37883647 141.96019673 -31.75 143.25 C-31.40195313 143.96929687 -31.05390625 144.68859375 -30.6953125 145.4296875 C-29.65942457 147.52635019 -29.65942457 147.52635019 -27.625 149.375 C-27.13580078 148.52615234 -27.13580078 148.52615234 -26.63671875 147.66015625 C-26.19972656 146.92667969 -25.76273437 146.19320312 -25.3125 145.4375 C-24.88324219 144.70660156 -24.45398438 143.97570312 -24.01171875 143.22265625 C-22.625 141.375 -22.625 141.375 -19.625 140.375 C-19.625 139.715 -19.625 139.055 -19.625 138.375 C-16.22879269 136.28502627 -13.57336905 136.1117754 -9.625 136.375 C-6.76141274 139.23858726 -7.52116184 146.9078909 -7.375 150.8125 C-7.4886574 156.72268479 -8.38142403 162.70710706 -12.27734375 167.33984375 C-16.76823529 171.375 -16.76823529 171.375 -20.625 171.375 C-20.295 172.24125 -19.965 173.1075 -19.625 174 C-17.87926211 179.9379676 -18.4721583 186.25284069 -18.625 192.375 C-18.02059082 192.53718018 -17.41618164 192.69936035 -16.79345703 192.86645508 C-10.35559736 194.68326296 -4.49565888 197.11635728 1.5 200.0625 C2.36109375 200.47822266 3.2221875 200.89394531 4.109375 201.32226562 C6.20119933 202.33331405 8.28954414 203.35089795 10.375 204.375 C10.3028125 203.64796875 10.230625 202.9209375 10.15625 202.171875 C8.25730028 181.59991969 8.25730028 181.59991969 11.375 176.375 C13.56640625 176.078125 13.56640625 176.078125 16.375 176.375 C24.30266096 182.75733244 31.60598331 192.60613036 32.76953125 202.84765625 C32.83147016 207.84218486 32.46177883 212.49796773 31.375 217.375 C32.11878906 217.6328125 32.86257812 217.890625 33.62890625 218.15625 C36.48210394 219.42253404 38.08160548 220.7192049 40.3125 222.875 C43.56397253 225.89306131 46.87222808 228.44816107 50.54907227 230.90039062 C61.91205294 238.52129062 69.28291173 249.19082346 75.375 261.375 C72.68844973 244.47212121 65.42473454 229.31230025 58.1875 213.9375 C57.68871338 212.8652417 57.18992676 211.7929834 56.67602539 210.68823242 C52.90872118 202.8424473 49.32907392 198.26847339 41.625 194 C36.64759408 190.96010779 36.64759408 190.96010779 35.44140625 188.37109375 C35.1875 186.4375 35.1875 186.4375 35.375 183.375 C41.125 184.25 41.125 184.25 43.375 185.375 C43.01148438 184.63338623 42.64796875 183.89177246 42.2734375 183.12768555 C40.63453863 179.77555954 39.00467605 176.41911879 37.375 173.0625 C36.80265625 171.89525391 36.2303125 170.72800781 35.640625 169.52539062 C34.82851563 167.84799805 34.82851563 167.84799805 34 166.13671875 C33.49726563 165.10506592 32.99453125 164.07341309 32.4765625 163.01049805 C31.375 160.375 31.375 160.375 31.375 157.375 C30.70855469 157.42140625 30.04210937 157.4678125 29.35546875 157.515625 C22.19665794 157.79597004 15.69259276 156.985053 9.375 153.375 C8.21875 151.26953125 8.21875 151.26953125 7.375 149.375 C5.71885343 148.99281233 4.05042976 148.66104898 2.375 148.375 C0.5625 147.1875 0.5625 147.1875 -0.625 145.375 C-1.0625 142.375 -1.0625 142.375 -0.625 139.375 C1.82940723 136.74878426 3.2555277 136.38621304 6.87109375 136.046875 C8.82208984 136.08554687 8.82208984 136.08554687 10.8125 136.125 C12.75962891 136.14820313 12.75962891 136.14820313 14.74609375 136.171875 C17.74880908 136.33994949 20.45881806 136.67826289 23.375 137.375 C22.86147902 135.59580083 22.31289645 133.82669984 21.75 132.0625 C21.44835937 131.07636719 21.14671875 130.09023438 20.8359375 129.07421875 C19.57900755 126.1230601 19.57900755 126.1230601 16.4609375 124.96875 C12.43550108 122.88979043 11.38380439 120.14347929 9.625 116.1875 C6.10930725 109.01059033 2.17758024 104.72865135 -4.625 100.375 C-5.52605469 99.7975 -6.42710937 99.22 -7.35546875 98.625 C-9.19106601 97.46513036 -11.03218977 96.31395781 -12.87890625 95.171875 C-16.59719308 92.73885659 -20.00645408 89.99488956 -23.43359375 87.171875 C-25.45764053 85.5122288 -27.51931457 83.92908219 -29.625 82.375 C-30.2025 82.849375 -30.78 83.32375 -31.375 83.8125 C-37.07700197 87.77222359 -44.10176367 86.48647975 -50.625 85.375 C-53.97932474 84.12278582 -56.73006508 82.46609862 -59.625 80.375 C-60.31980469 79.89546875 -61.01460937 79.4159375 -61.73046875 78.921875 C-64.97127657 76.46377725 -66.44906909 75.27224765 -67.25 71.1875 C-66.54636941 68.02116236 -66.27976331 67.17338805 -63.625 65.375 C-57.5197858 61.86774929 -51.57480818 61.51779554 -44.625 62.375 C-40.51328918 63.7740326 -37.21936764 65.97875491 -33.625 68.375 C-33.94500977 67.66545166 -34.26501953 66.95590332 -34.59472656 66.22485352 C-36.34396586 61.38625865 -36.18702261 56.41517652 -36.375 51.3125 C-36.43042969 50.22388672 -36.48585938 49.13527344 -36.54296875 48.01367188 C-36.60677734 46.44262695 -36.60677734 46.44262695 -36.671875 44.83984375 C-36.73133301 43.41079712 -36.73133301 43.41079712 -36.79199219 41.95288086 C-36.61678099 39.24812204 -36.00953857 37.67793107 -34.625 35.375 C-31.5 34.8125 -31.5 34.8125 -27.625 35.375 C-20.89049293 41.93520218 -17.45374203 52.37136207 -17.1875 61.5625 C-17.35642534 66.74512944 -18.4602596 70.68472914 -20.625 75.375 C-14.56364598 81.40181639 -7.86183225 85.99911427 -0.65454102 90.5168457 C3.21575674 92.94610805 6.87071203 95.4225684 10.375 98.375 C9.782344 90.110429 8.08961043 82.34871487 6.10351562 74.32226562 C4.87781266 69.19432463 4.09051177 64.64897419 4.375 59.375 C6.625 59 6.625 59 9.375 59.375 C16.15156091 67.14811398 17.15070069 78.01059567 18.82312012 87.81918335 C20.89344725 99.85499722 23.30732409 111.18642637 28.375 122.375 C29.04862942 124.03886467 29.71796274 125.70451376 30.375 127.375 C32.47321436 121.92700481 34.34796333 116.47356871 36 110.875 C36.2165625 110.16730469 36.433125 109.45960938 36.65625 108.73046875 C39.93369958 97.66401861 39.56941008 88.76382016 34.375 78.375 C33.92898437 77.941875 33.48296875 77.50875 33.0234375 77.0625 C23.53152215 67.34565775 17.29768971 52.27003185 17.25 38.75 C17.29125 37.63625 17.3325 36.5225 17.375 35.375 C16.42625 35.395625 15.4775 35.41625 14.5 35.4375 C8.35822009 34.48876977 4.13574785 30.03146651 0.375 25.375 C-3.41845905 18.01670554 -5.58971573 10.64399198 -4.625 2.375 C-2.625 0.375 -2.625 0.375 0 0 Z M3.375 9.375 C3.70289496 17.244479 7.86894464 22.0337966 13.375 27.375 C14.035 27.045 14.695 26.715 15.375 26.375 C11.86585485 16.39509821 11.86585485 16.39509821 4.375 9.375 C4.045 9.375 3.715 9.375 3.375 9.375 Z M29.375 27.375 C27.63074543 31.54285038 27.01958009 35.02595484 28.375 39.375 C31.10777221 37.20279645 33.10388915 35.51672035 33.9296875 32.0390625 C34.16150022 29.81225548 34.32137012 27.61282882 34.375 25.375 C32.1544945 25.375 31.17124381 26.06864087 29.375 27.375 Z M142.375 26.375 C140.94195936 29.24108129 141.06855845 31.18800783 141.375 34.375 C143.18878992 37.72252558 143.18878992 37.72252558 145.375 40.375 C145.705 40.375 146.035 40.375 146.375 40.375 C146.28731752 38.7906683 146.17912671 37.20746433 146.0625 35.625 C145.97548828 34.30242187 145.97548828 34.30242187 145.88671875 32.953125 C145.3108819 30.05196226 144.29903852 28.58274393 142.375 26.375 Z M158.375 42.375 C156.36635641 44.7476974 156.36635641 44.7476974 155.375 47.375 C155.705 48.365 156.035 49.355 156.375 50.375 C162.97867761 46.15937358 162.97867761 46.15937358 166.375 39.375 C163.16628942 39.375 161.10236234 40.76084678 158.375 42.375 Z M-28.625 50.375 C-28.79182272 55.29627034 -28.87328052 58.87843896 -26.625 63.375 C-26.295 63.375 -25.965 63.375 -25.625 63.375 C-25.45817728 58.45372966 -25.37671948 54.87156104 -27.625 50.375 C-27.955 50.375 -28.285 50.375 -28.625 50.375 Z M100.375 57.375 C101.36260926 63.8334448 102.56655535 68.99837226 106.375 74.375 C108.44200655 75.70293606 108.44200655 75.70293606 110.375 76.375 C110.705 77.035 111.035 77.695 111.375 78.375 C111.375 77.385 111.375 76.395 111.375 75.375 C110.715 75.375 110.055 75.375 109.375 75.375 C109.354375 74.26125 109.33375 73.1475 109.3125 72 C108.63120056 66.15130635 105.06592623 61.78963725 101.375 57.375 C101.045 57.375 100.715 57.375 100.375 57.375 Z M-56.625 70.375 C-56.26003187 72.86199712 -56.0574049 74.04278648 -54.0234375 75.60546875 C-49.56234481 77.71544502 -45.63934313 79.18214065 -40.625 79.375 C-38.2534995 78.56920215 -38.2534995 78.56920215 -36.625 77.375 C-39.77077247 72.52526744 -43.14399754 70.6917252 -48.625 69.375 C-51.73757569 69.375 -53.73265685 69.54861624 -56.625 70.375 Z M55.375 70.375 C59.83287041 76.28651503 59.83287041 76.28651503 66.375 79.375 C67.365 79.375 68.355 79.375 69.375 79.375 C67.94259722 75.75140811 66.34798034 74.43944274 62.9375 72.625 C62.15503906 72.19703125 61.37257812 71.7690625 60.56640625 71.328125 C58.31477578 70.17557717 58.31477578 70.17557717 55.375 70.375 Z M172.875 80.6875 C171.96234375 81.33138672 171.96234375 81.33138672 171.03125 81.98828125 C169.11395233 83.46121492 169.11395233 83.46121492 167.375 86.375 C167.375 87.695 167.375 89.015 167.375 90.375 C172.26207047 89.7155611 172.26207047 89.7155611 175.73046875 86.53125 C177.73825408 82.63280532 177.73825408 82.63280532 178.375 78.375 C175.81121311 78.375 174.94076849 79.20382306 172.875 80.6875 Z M208.375 86.375 C206.34402742 91.57936725 205.18585988 96.47647096 207.375 101.8125 C207.705 102.328125 208.035 102.84375 208.375 103.375 C208.705 103.375 209.035 103.375 209.375 103.375 C211.15330479 97.51705483 211.6424668 93.3954673 210.375 87.375 C209.715 87.045 209.055 86.715 208.375 86.375 Z M-36.625 115.375 C-39.14283476 120.09594018 -39.22753551 125.14711838 -38.625 130.375 C-37.635 131.86 -37.635 131.86 -36.625 133.375 C-33.95287747 127.38944554 -33.18333395 123.80704853 -34.625 117.375 C-35.285 116.715 -35.945 116.055 -36.625 115.375 Z M217.375 119.375 C215.06081709 121.43667261 215.06081709 121.43667261 213.375 123.375 C218.98226423 123.66503091 222.4991995 123.50944318 227.375 120.375 C228.035 119.385 228.695 118.395 229.375 117.375 C224.29515953 116.04456559 221.80453121 116.58246946 217.375 119.375 Z M-94.625 121.375 C-92.99132157 128.36829011 -90.79262655 134.22000823 -85.625 139.375 C-83.5302888 140.58761697 -83.5302888 140.58761697 -81.625 141.375 C-81.1643356 135.61669504 -82.01053498 132.86865922 -85.625 128.375 C-88.46099593 125.25540448 -90.82819529 123.14469711 -94.625 121.375 Z M45.4296875 126.125 C44.35074219 127.23875 44.35074219 127.23875 43.25 128.375 C42.52554688 129.1175 41.80109375 129.86 41.0546875 130.625 C40.50039062 131.2025 39.94609375 131.78 39.375 132.375 C39.705 133.365 40.035 134.355 40.375 135.375 C44.57672849 132.85396291 47.25606444 130.84830841 49.375 126.375 C49.375 125.715 49.375 125.055 49.375 124.375 C47.18670957 124.15206675 47.18670957 124.15206675 45.4296875 126.125 Z M70.375 126.375 C70.49875 127.65375 70.6225 128.9325 70.75 130.25 C70.81960937 130.96929687 70.88921875 131.68859375 70.9609375 132.4296875 C71.23874749 134.60168245 71.23874749 134.60168245 73.375 136.375 C73.67995485 131.94835436 73.67995485 131.94835436 71.875 128 C71.38 127.46375 70.885 126.9275 70.375 126.375 Z M137.375 143.375 C135.47557876 145.87052137 135.47557876 145.87052137 134.375 148.375 C134.705 149.035 135.035 149.695 135.375 150.375 C139.43524321 148.33697865 139.43524321 148.33697865 141.375 144.375 C142.035 144.375 142.695 144.375 143.375 144.375 C143.705 142.725 144.035 141.075 144.375 139.375 C141.1573463 139.375 139.70247958 141.2745916 137.375 143.375 Z M10.375 143.375 C12.84324401 146.28519311 15.30580098 147.31040196 18.875 148.5625 C19.8340625 148.90667969 20.793125 149.25085938 21.78125 149.60546875 C24.40343177 150.51721621 24.40343177 150.51721621 27.375 150.375 C26.39778662 147.85919535 25.84156835 146.62508064 23.421875 145.328125 C18.94489458 143.95762079 15.11863363 143.01010511 10.375 143.375 Z M-16.625 146.375 C-19.79022849 150.82610256 -21.77764935 154.06338949 -21.6875 159.5625 C-21.666875 160.820625 -21.64625 162.07875 -21.625 163.375 C-19.28265733 162.43806293 -17.89977723 161.79479854 -16.5 159.65625 C-15.42305943 156.84851208 -15.4286057 154.62356072 -15.5 151.625 C-15.51804687 150.64015625 -15.53609375 149.6553125 -15.5546875 148.640625 C-15.57789063 147.89296875 -15.60109375 147.1453125 -15.625 146.375 C-15.955 146.375 -16.285 146.375 -16.625 146.375 Z M-107.625 152.375 C-107.625 153.035 -107.625 153.695 -107.625 154.375 C-101.11339743 158.38214004 -95.26404437 159.58633418 -87.625 158.375 C-85.3057719 156.96088763 -85.3057719 156.96088763 -83.625 155.375 C-83.955 154.385 -84.285 153.395 -84.625 152.375 C-92.90881056 148.45108973 -99.35911117 148.24205559 -107.625 152.375 Z M93.375 166.375 C93.53974648 172.97983602 94.7315573 177.53025198 99.375 182.375 C100.365 183.035 101.355 183.695 102.375 184.375 C103.365 184.045 104.355 183.715 105.375 183.375 C103.24526665 175.42745846 100.17846249 171.16262175 93.375 166.375 Z M16.375 189.375 C15.78328716 196.17969763 17.46366093 202.68015609 21.75390625 208.125 C23.22105629 209.63847493 23.22105629 209.63847493 25.375 211.375 C25.92886227 204.7286527 25.16358421 199.94288734 21.375 194.375 C19.79773759 192.53411583 18.19348069 190.99142728 16.375 189.375 Z M81.375 206.375 C80.5283966 207.76282485 79.69824661 209.16069397 78.875 210.5625 C78.4109375 211.33980469 77.946875 212.11710938 77.46875 212.91796875 C76.26770353 215.61603386 76.16758957 217.4556982 76.375 220.375 C79.45780663 219.70693706 79.45780663 219.70693706 80.54296875 217.44921875 C80.87941406 216.66160156 81.21585938 215.87398437 81.5625 215.0625 C81.90667969 214.28261719 82.25085938 213.50273437 82.60546875 212.69921875 C83.58454169 210.15017023 83.58454169 210.15017023 83.375 206.375 C82.715 206.375 82.055 206.375 81.375 206.375 Z M-98.625 223.375 C-98.625 224.035 -98.625 224.695 -98.625 225.375 C-96.24874823 225.48383596 -93.87756024 225.56266696 -91.5 225.625 C-90.83484375 225.65851563 -90.1696875 225.69203125 -89.484375 225.7265625 C-84.35037958 225.82722908 -81.56284406 224.6011855 -77.625 221.375 C-76.23631484 219.27460669 -76.23631484 219.27460669 -75.625 217.375 C-84.46566379 211.31283054 -91.96487469 216.30107993 -98.625 223.375 Z M128.375 220.375 C130.24857824 222.67499435 130.24857824 222.67499435 133.2734375 222.640625 C134.42070312 222.63546875 135.56796875 222.6303125 136.75 222.625 C137.89210938 222.63015625 139.03421875 222.6353125 140.2109375 222.640625 C143.19506883 222.39010533 144.86440678 221.93329924 147.375 220.375 C140.71364738 216.21165461 134.92976091 216.96106202 128.375 220.375 Z M-42.24609375 225.87890625 C-46.71048593 230.93855072 -50.36686745 235.33092336 -50.8125 242.3125 C-50.750625 242.993125 -50.68875 243.67375 -50.625 244.375 C-44.15911256 241.45901155 -41.30326973 237.93786756 -38.625 231.375 C-37.56110441 227.77995736 -37.56110441 227.77995736 -38.625 224.375 C-40.74917431 224.14829592 -40.74917431 224.14829592 -42.24609375 225.87890625 Z M15.375 248.375 C12.72747996 250.95284846 10.43067935 253.29148098 8.375 256.375 C8.705 257.365 9.035 258.355 9.375 259.375 C12.54619503 258.28148447 13.38283543 257.3623012 15.1875 254.4375 C16.73865926 251.4029545 16.73865926 251.4029545 15.375 248.375 Z M97.875 315.5 C92.29873781 321.82528221 85.9557923 323.55678144 77.90039062 325.35986328 C70.72531911 326.99672633 65.6976165 329.13042885 61.328125 335.234375 C60.76609375 336.18828125 60.2040625 337.1421875 59.625 338.125 C56.22929191 343.10492623 56.22929191 343.10492623 52.421875 344.30859375 C49.68653719 344.53653857 47.10909723 344.5911143 44.375 344.375 C44.375 344.705 44.375 345.035 44.375 345.375 C38.765 345.375 33.155 345.375 27.375 345.375 C27.375 344.715 27.375 344.055 27.375 343.375 C25.25641459 344.30253114 25.25641459 344.30253114 23.5625 346.1875 C21.375 348.375 21.375 348.375 18.625 350.5 C17.51125 351.428125 17.51125 351.428125 16.375 352.375 C16.375 353.035 16.375 353.695 16.375 354.375 C15.715 354.375 15.055 354.375 14.375 354.375 C12.63611909 356.09385317 12.63611909 356.09385317 10.875 358.25 C9.08566742 360.36535504 7.33480876 362.41519124 5.375 364.375 C5.375 365.365 5.375 366.355 5.375 367.375 C21.1412275 370.02940409 36.90429742 372.2878389 52.7956543 374.04956055 C54.64587649 374.28300552 56.49014514 374.56563571 58.32836914 374.87988281 C63.56172006 375.73037049 68.84135817 376.03587182 74.125 376.4375 C75.25421875 376.52837891 76.3834375 376.61925781 77.546875 376.71289062 C87.04934729 377.44427304 96.3277172 377.67140725 105.8125 376.6875 C106.63758057 376.60282471 107.46266113 376.51814941 108.31274414 376.4309082 C128.34732999 374.25899758 148.3168779 371.14848207 168.1875 367.8125 C169.31728271 367.6271167 170.44706543 367.4417334 171.61108398 367.25073242 C179.73170597 365.84808502 187.49839808 363.76720799 195.375 361.375 C194.58746338 360.59036377 193.79992676 359.80572754 192.98852539 358.99731445 C191.48929569 357.49304297 190.00337758 355.97460681 188.55859375 354.41796875 C181.84342948 347.28216779 173.52569506 339.71530697 163.34594727 339.2902832 C160.97942044 339.24060757 158.6169885 339.23860198 156.25 339.25 C155.03376953 339.24419922 155.03376953 339.24419922 153.79296875 339.23828125 C153.01308594 339.23957031 152.23320312 339.24085938 151.4296875 339.2421875 C150.72312012 339.24331543 150.01655273 339.24444336 149.28857422 339.24560547 C147.15240811 339.30947277 147.15240811 339.30947277 144.375 340.375 C142.21875 340.578125 142.21875 340.578125 139.875 340.625 C139.1015625 340.65078125 138.328125 340.6765625 137.53125 340.703125 C134.79339569 340.286495 134.06017102 339.53957312 132.375 337.375 C131.5841728 336.00188565 130.836645 334.60327261 130.125 333.1875 C127.8686282 328.99514757 125.2128334 325.63927915 121.98828125 322.15234375 C120.375 320.375 120.375 320.375 118.5 317.6875 C114.87093036 313.73821834 110.17999421 310.88698802 104.87109375 309.91796875 C101.20396496 310.58941487 100.17522462 312.62471922 97.875 315.5 Z M31.375 342.375 C31.045 343.035 30.715 343.695 30.375 344.375 C33.675 344.375 36.975 344.375 40.375 344.375 C40.375 344.045 40.375 343.715 40.375 343.375 C37.405 343.045 34.435 342.715 31.375 342.375 Z M41.375 343.375 C41.375 344.035 41.375 344.695 41.375 345.375 C42.035 345.045 42.695 344.715 43.375 344.375 C42.715 344.045 42.055 343.715 41.375 343.375 Z " fill="#013300" transform="translate(158.625,204.625)"/>
<path d="M0 0 C5.86489523 4.73921373 9.73681969 9.57428328 10.65234375 17.18554688 C11.92028235 32.55578034 8.17794148 45.48146165 -0.578125 58.26953125 C0.05996094 58.35203125 0.69804687 58.43453125 1.35546875 58.51953125 C13.83260794 61.57126466 25.76040704 69.02089243 35.421875 77.26953125 C36.32550781 78.03523438 37.22914063 78.8009375 38.16015625 79.58984375 C43.01374591 83.83224064 47.46826758 88.17145852 51.421875 93.26953125 C51.421875 93.92953125 51.421875 94.58953125 51.421875 95.26953125 C52.02281982 95.51550049 52.62376465 95.76146973 53.24291992 96.01489258 C55.80831758 97.49204424 56.73249086 98.84182082 58.28515625 101.34375 C60.2825782 104.48237697 62.30725073 107.5704108 64.46484375 110.6015625 C70.16062404 118.68809762 75.52898028 126.84733822 80.296875 135.51953125 C80.71219482 136.27339111 81.12751465 137.02725098 81.55541992 137.80395508 C88.4993131 150.71467672 94.25444646 164.27889584 100.27056885 177.63845825 C106.47032443 191.39641638 112.68537373 205.14794984 119.046875 218.83203125 C119.33152618 219.44477905 119.61617737 220.05752686 119.90945435 220.68884277 C123.52600226 228.45335928 127.36730006 236.03286365 131.49658203 243.53442383 C140.75830996 260.75981767 144.0278701 279.75915079 140.7734375 299.12890625 C136.89698818 311.65281944 128.32713398 321.05452413 119.421875 330.26953125 C118.71804688 331.02492188 118.01421875 331.7803125 117.2890625 332.55859375 C112.5696992 337.50723786 107.38650506 341.87933299 101.421875 345.26953125 C100.431875 345.26953125 99.441875 345.26953125 98.421875 345.26953125 C98.421875 345.92953125 98.421875 346.58953125 98.421875 347.26953125 C95.27869583 349.00355232 92.13220312 350.73146436 88.984375 352.45703125 C88.00170654 352.99585938 87.01903809 353.5346875 86.0065918 354.08984375 C79.68196852 357.54027214 73.31194882 360.88178852 66.89404297 364.1550293 C58.02163651 368.68858083 49.30090249 373.34405683 40.859375 378.64453125 C40.1166333 379.10794922 39.3738916 379.57136719 38.60864258 380.04882812 C31.50998769 384.61568101 24.95541134 389.57509532 20.546875 396.89453125 C19.71542969 398.24417969 19.71542969 398.24417969 18.8671875 399.62109375 C16.09449027 404.70187408 14.97976956 408.41163416 15.421875 414.26953125 C19.56003568 418.40769193 25.46738201 417.52109673 30.9836731 417.52503967 C41.19300946 417.38578743 51.22317701 415.74687008 61.296875 414.20703125 C63.4400126 413.88868465 65.58316053 413.57040763 67.72631836 413.25219727 C79.89578353 411.41804631 91.94848304 409.26534342 103.984375 406.70703125 C134.51553024 400.26363747 165.44306435 396.96096729 196.60595703 395.88989258 C207.44440277 395.51692838 218.19541646 394.86764546 228.99291992 393.85440063 C241.20649696 392.71083281 253.33934151 391.95556607 265.609375 391.89453125 C266.87434814 391.88083496 268.13932129 391.86713867 269.44262695 391.85302734 C281.04642579 391.91150866 288.90435109 394.26185912 297.421875 402.26953125 C305.87584893 410.92076457 305.87584893 410.92076457 306.109375 416.76953125 C305.8825 417.92453125 305.655625 419.07953125 305.421875 420.26953125 C302.421875 422.26953125 302.421875 422.26953125 298.921875 422.08203125 C294.28192589 421.00490021 294.28192589 421.00490021 292.421875 418.26953125 C292.421875 417.60953125 292.421875 416.94953125 292.421875 416.26953125 C291.761875 416.26953125 291.101875 416.26953125 290.421875 416.26953125 C289.761875 415.54765625 289.101875 414.82578125 288.421875 414.08203125 C280.68275965 406.23140127 270.04471782 404.36472129 259.421875 404.26953125 C247.45814588 404.62699701 235.4824732 405.52145658 223.58203125 406.78051758 C218.61121479 407.28250902 213.65575524 407.52554307 208.6640625 407.69921875 C206.81556667 407.77057567 204.96709737 407.84262238 203.11865234 407.9152832 C201.69223419 407.97070786 201.69223419 407.97070786 200.23699951 408.0272522 C184.56466287 408.6524083 169.03889116 409.40865025 153.52050781 411.80126953 C150.59670923 412.24311051 147.66964607 412.651955 144.73960876 413.05007935 C128.32560217 415.28255576 112.08062384 418.01766138 95.84191895 421.28878784 C82.11932356 424.04641815 68.40128022 426.09450301 54.51098633 427.84326172 C51.40514132 428.27184035 48.33167448 428.80471363 45.24609375 429.359375 C39.86821968 430.27630916 34.68233454 430.57137543 29.234375 430.51953125 C28.41001953 430.52726562 27.58566406 430.535 26.73632812 430.54296875 C20.04070661 430.52189677 13.40838143 430.02248067 7.546875 426.58203125 C2.40357034 420.98490559 1.91537411 415.62359979 2.14453125 408.25390625 C2.97148348 399.3554344 7.08764327 393.26005411 12.421875 386.26953125 C13.5665625 384.72265625 13.5665625 384.72265625 14.734375 383.14453125 C15.29125 382.52578125 15.848125 381.90703125 16.421875 381.26953125 C17.081875 381.26953125 17.741875 381.26953125 18.421875 381.26953125 C18.62345215 380.69759033 18.8250293 380.12564941 19.03271484 379.53637695 C20.94409606 376.4173656 23.60002967 374.87331216 26.6484375 373 C27.27126617 372.6091069 27.89409485 372.21821381 28.53579712 371.81547546 C34.51705909 368.11221542 40.68594145 364.79067044 46.9289856 361.55252075 C80.11009572 345.30667396 80.11009572 345.30667396 108.421875 322.26953125 C109.22625 321.48578125 110.030625 320.70203125 110.859375 319.89453125 C111.705 319.02828125 112.550625 318.16203125 113.421875 317.26953125 C114.01742187 316.69332031 114.61296875 316.11710937 115.2265625 315.5234375 C123.31747852 307.19640525 129.82178769 296.59748107 130.171875 284.76953125 C129.04239678 270.07100981 124.17238236 257.58463843 117.734375 244.51953125 C117.00349271 243.00733842 116.27434529 241.49430594 115.546875 239.98046875 C114.47115655 237.74245382 113.39454392 235.50494352 112.31216431 233.2701416 C109.74965929 227.97891586 107.29214985 222.64982964 104.921875 217.26953125 C102.1453466 210.99466117 99.25885727 204.77635256 96.32421875 198.57421875 C95.95894073 197.80168762 95.59366272 197.02915649 95.21731567 196.23321533 C93.36802127 192.32461392 91.51348107 188.41860066 89.65234375 184.515625 C88.9699454 183.07687351 88.28764912 181.63807361 87.60546875 180.19921875 C87.28408432 179.52937958 86.96269989 178.85954041 86.63157654 178.16940308 C84.421875 173.49606306 84.421875 173.49606306 84.421875 171.26953125 C83.761875 171.26953125 83.101875 171.26953125 82.421875 171.26953125 C82.17179688 172.14480469 81.92171875 173.02007812 81.6640625 173.921875 C73.21378859 196.69509744 46.56413283 212.77247009 27.53076172 225.60961914 C19.70255252 230.8994976 11.90912935 236.23446895 4.296875 241.83203125 C3.65282715 242.29569092 3.0087793 242.75935059 2.34521484 243.23706055 C-1.57749106 246.16662937 -3.9201346 249.09991418 -6.578125 253.26953125 C-12.63941707 259.04059571 -19.86543611 263.62391835 -26.79296875 268.2890625 C-29.5153742 270.0945404 -29.5153742 270.0945404 -31.26953125 272.03125 C-32.578125 273.26953125 -32.578125 273.26953125 -35.578125 273.26953125 C-35.908125 274.25953125 -36.238125 275.24953125 -36.578125 276.26953125 C-39.08203125 278.3125 -39.08203125 278.3125 -42.140625 280.45703125 C-43.15253906 281.17246094 -44.16445313 281.88789063 -45.20703125 282.625 C-45.98949219 283.16769531 -46.77195312 283.71039063 -47.578125 284.26953125 C-46.27743994 287.23711367 -45.04163329 288.95627625 -42.453125 290.89453125 C-41.504375 291.67828125 -40.555625 292.46203125 -39.578125 293.26953125 C-39.578125 293.92953125 -39.578125 294.58953125 -39.578125 295.26953125 C-39.03414063 295.52734375 -38.49015625 295.78515625 -37.9296875 296.05078125 C-35.16839265 297.48188423 -32.57721691 299.10029758 -29.953125 300.76953125 C-28.99148438 301.37796875 -28.02984375 301.98640625 -27.0390625 302.61328125 C-24.578125 304.26953125 -24.578125 304.26953125 -22.578125 306.26953125 C-21.93973214 312.01506696 -21.93973214 312.01506696 -22.578125 314.26953125 C-25.81970096 316.45515284 -29.11698371 317.9706663 -32.75 319.3828125 C-40.50584621 322.55361279 -47.89489529 326.3904435 -55.35177612 330.19668579 C-112.99988374 359.53686937 -112.99988374 359.53686937 -139.578125 357.26953125 C-142.06819983 353.534419 -142.21471187 349.59933244 -141.578125 345.26953125 C-140.38820537 342.6108944 -139.23182904 340.39388565 -137.703125 337.95703125 C-136.86308379 336.54593491 -136.02595619 335.13310092 -135.19140625 333.71875 C-134.75650879 332.98833496 -134.32161133 332.25791992 -133.87353516 331.50537109 C-131.74413964 327.83009703 -129.83061187 324.0470858 -127.890625 320.26953125 C-120.10113012 305.27646319 -111.43398182 290.73480576 -102.5 276.3984375 C-100.13821131 272.55333031 -97.85721573 268.66403325 -95.578125 264.76953125 C-89.20562266 253.91150007 -89.20562266 253.91150007 -86.140625 248.83203125 C-85.21443359 247.28708984 -85.21443359 247.28708984 -84.26953125 245.7109375 C-82.1355799 242.63075368 -80.40294717 241.47115445 -76.765625 240.58203125 C-73.08505618 241.37587943 -72.80758321 241.79167552 -70.765625 244.76953125 C-69.67372271 246.58550668 -68.61641045 248.4223765 -67.578125 250.26953125 C-66.80902144 251.60962055 -66.03945816 252.94944607 -65.26953125 254.2890625 C-63.00219737 258.26267502 -60.76771286 262.25255182 -58.578125 266.26953125 C-58.16046875 267.02621094 -57.7428125 267.78289062 -57.3125 268.5625 C-56.578125 270.26953125 -56.578125 270.26953125 -56.578125 273.26953125 C-53.45515683 271.61045441 -50.90830345 269.71462847 -48.328125 267.33203125 C-42.80954117 262.3843354 -36.67189674 258.27101192 -30.6015625 254.0390625 C-29.56273926 253.31323975 -29.56273926 253.31323975 -28.50292969 252.57275391 C-26.91441745 251.49722393 -25.2715355 250.50247013 -23.6171875 249.53125 C-15.34829977 243.37741196 -9.87177462 235.22969706 -5.140625 226.20703125 C-4.59132324 225.17408936 -4.04202148 224.14114746 -3.47607422 223.0769043 C2.3777111 211.81851446 7.06142686 200.17307638 11.421875 188.26953125 C11.74349609 187.4089209 12.06511719 186.54831055 12.39648438 185.66162109 C17.4185537 172.0972153 20.76400413 158.15868041 24.07620239 144.10421753 C24.23925873 143.41240387 24.40231506 142.72059021 24.5703125 142.0078125 C24.73087128 141.32655304 24.89143005 140.64529358 25.05685425 139.94338989 C26.30520688 134.68112444 27.68096657 129.46762719 29.171875 124.26953125 C30.79436877 118.55965335 32.3629651 112.84260842 33.796875 107.08203125 C33.97702148 106.39818359 34.15716797 105.71433594 34.34277344 105.00976562 C35.44082697 100.47832998 35.6482694 96.78693814 34.421875 92.26953125 C32.70552146 91.00611417 32.70552146 91.00611417 30.421875 90.26953125 C28.46401332 88.77500192 26.52919057 87.25012829 24.609375 85.70703125 C14.47852446 77.76679192 3.84802808 70.96379298 -8.578125 67.26953125 C-9.20976562 67.98238281 -9.84140625 68.69523437 -10.4921875 69.4296875 C-18.88956681 78.41996535 -28.74002959 85.73040743 -41.484375 86.5078125 C-56.89221567 86.88636285 -67.91355291 84.0279572 -79.578125 73.26953125 C-88.7362167 63.13876641 -92.56076035 52.64642651 -91.9609375 39.07421875 C-91.43480113 33.8450675 -90.12596418 29.83641281 -87.578125 25.26953125 C-87.18882812 24.51414063 -86.79953125 23.75875 -86.3984375 22.98046875 C-81.40309402 14.37901932 -72.61233729 8.17290015 -63.578125 4.26953125 C-62.258125 4.26953125 -60.938125 4.26953125 -59.578125 4.26953125 C-59.48748779 3.63942139 -59.39685059 3.00931152 -59.3034668 2.36010742 C-59.064104 1.67021729 -58.82474121 0.98032715 -58.578125 0.26953125 C-55.80314066 -0.84587416 -53.26486767 -1.67491848 -50.390625 -2.41796875 C-49.63458984 -2.63001953 -48.87855469 -2.84207031 -48.09960938 -3.06054688 C-33.0201912 -7.20640599 -13.53963564 -9.08796756 0 0 Z M-61.578125 17.26953125 C-62.96451172 18.04876953 -62.96451172 18.04876953 -64.37890625 18.84375 C-71.84947745 23.42653737 -76.92408578 29.86507372 -79.578125 38.26953125 C-80.93370147 47.20629467 -77.55968474 54.82447309 -72.453125 62.01953125 C-66.60282143 69.11271047 -58.44937812 73.51132401 -49.3125 74.51953125 C-40.25116382 74.97544754 -32.85934141 72.55397993 -25.99023438 66.56201172 C-23.43827071 64.20866022 -21.00124972 61.75433244 -18.578125 59.26953125 C-17.73765625 58.43808594 -16.8971875 57.60664063 -16.03125 56.75 C-7.84926226 48.25226441 -1.17301842 36.68867708 -0.4140625 24.671875 C-0.62658223 19.25262196 -1.86513644 15.59710575 -5.73828125 11.7421875 C-22.04311597 -1.30860377 -45.59925351 8.24032847 -61.578125 17.26953125 Z M45.421875 107.26953125 C45.21208008 108.15415039 45.21208008 108.15415039 44.99804688 109.05664062 C41.83861571 122.35469656 38.6078128 135.63349466 35.296875 148.89453125 C35.13324463 149.55155029 34.96961426 150.20856934 34.80102539 150.88549805 C33.68829705 155.35036935 32.55985987 159.81103419 31.421875 164.26953125 C31.09912598 165.54143311 30.77637695 166.81333496 30.44384766 168.1237793 C28.35394998 176.18518106 25.92108719 184.0173386 23.046875 191.83203125 C22.65838379 192.90396729 22.26989258 193.97590332 21.86962891 195.08032227 C19.28217734 202.14638422 16.48609684 209.06492596 13.3203125 215.890625 C13.02382813 216.67566406 12.72734375 217.46070313 12.421875 218.26953125 C12.751875 218.92953125 13.081875 219.58953125 13.421875 220.26953125 C14.42154297 219.52509766 14.42154297 219.52509766 15.44140625 218.765625 C20.07028503 215.35385001 24.68775717 212.05893687 29.609375 209.08203125 C47.99302735 197.54615771 68.05363074 180.80026184 74.421875 159.26953125 C74.69 158.52058594 74.958125 157.77164063 75.234375 157 C75.52217427 152.80892311 73.761133 149.78012685 71.921875 146.08203125 C71.55022217 145.31810059 71.17856934 144.55416992 70.7956543 143.76708984 C68.39542744 138.94203419 65.79443594 134.47340316 62.5546875 130.15625 C60.68997195 127.63239507 58.91899928 125.0770416 57.1640625 122.4765625 C56.58035889 121.61208496 55.99665527 120.74760742 55.39526367 119.85693359 C54.21618192 118.10741161 53.03921689 116.35646097 51.86450195 114.60400391 C51.04792114 113.4001001 51.04792114 113.4001001 50.21484375 112.171875 C49.7252417 111.44476318 49.23563965 110.71765137 48.73120117 109.96850586 C47.51413649 108.13421708 47.51413649 108.13421708 45.421875 107.26953125 Z M-77.578125 259.26953125 C-78.66448395 260.88621336 -79.69232821 262.54206078 -80.703125 264.20703125 C-81.0444043 264.76841797 -81.38568359 265.32980469 -81.73730469 265.90820312 C-83.02183664 268.02609298 -84.29967292 270.14796583 -85.578125 272.26953125 C-86.1237207 273.17074707 -86.66931641 274.07196289 -87.23144531 275.00048828 C-98.49363655 293.60611919 -109.41025504 312.36518307 -119.828125 331.45703125 C-120.68881592 333.02723022 -120.68881592 333.02723022 -121.56689453 334.62915039 C-122.09138184 335.59715576 -122.61586914 336.56516113 -123.15625 337.5625 C-123.62450195 338.42383545 -124.09275391 339.2851709 -124.57519531 340.17260742 C-125.72194969 342.18283532 -125.72194969 342.18283532 -125.578125 344.26953125 C-106.03736029 340.68915226 -88.65387334 332.76493171 -70.99447632 323.95864868 C-64.78650458 320.86387932 -58.52935931 317.87462521 -52.265625 314.89453125 C-50.37360014 313.99109015 -48.48166244 313.08746649 -46.58984375 312.18359375 C-45.25264436 311.54548867 -43.91542205 310.90743163 -42.578125 310.26953125 C-42.578125 309.27953125 -42.578125 308.28953125 -42.578125 307.26953125 C-44.54946486 305.89417786 -46.55494422 304.56742081 -48.578125 303.26953125 C-58.05319801 294.79183434 -63.97530167 284.46686922 -69.578125 273.26953125 C-70.26418391 271.91138811 -70.95038138 270.55331495 -71.63671875 269.1953125 C-73.29914923 265.89422983 -74.94360711 262.58453784 -76.578125 259.26953125 C-76.908125 259.26953125 -77.238125 259.26953125 -77.578125 259.26953125 Z " fill="#003300" transform="translate(446.578125,130.73046875)"/>
<path d="M0 0 C1.134375 0.020625 2.26875 0.04125 3.4375 0.0625 C3.4375 0.7225 3.4375 1.3825 3.4375 2.0625 C4.05625 2.35125 4.675 2.64 5.3125 2.9375 C7.4375 4.0625 7.4375 4.0625 9.4375 6.0625 C9.6328125 8.2265625 9.6328125 8.2265625 9.5625 10.6875 C9.54445313 11.50476563 9.52640625 12.32203125 9.5078125 13.1640625 C9.47300781 14.10378906 9.47300781 14.10378906 9.4375 15.0625 C4.20024165 16.10995167 4.20024165 16.10995167 1.4375 16.0625 C-1.0625 14.25 -1.0625 14.25 -2.5625 12.0625 C-2.5625 11.4025 -2.5625 10.7425 -2.5625 10.0625 C-3.2225 10.0625 -3.8825 10.0625 -4.5625 10.0625 C-4.58939216 8.58343108 -4.60884621 7.10422517 -4.625 5.625 C-4.63660156 4.80128906 -4.64820313 3.97757813 -4.66015625 3.12890625 C-4.49001835 -0.47121162 -3.73687179 0.06555915 0 0 Z " fill="#003300" transform="translate(386.5625,174.9375)"/>
<path d="M0 0 C0.33 0.66 0.66 1.32 1 2 C0.00390625 4.1640625 0.00390625 4.1640625 -1.4375 6.625 C-1.91058594 7.44226563 -2.38367188 8.25953125 -2.87109375 9.1015625 C-3.24363281 9.72804688 -3.61617187 10.35453125 -4 11 C-5.65 11 -7.3 11 -9 11 C-8.06558465 9.72689688 -7.12732889 8.456612 -6.1875 7.1875 C-5.66542969 6.47980469 -5.14335937 5.77210938 -4.60546875 5.04296875 C-3.16871123 3.21468607 -1.68184237 1.60103312 0 0 Z " fill="#083A00" transform="translate(174,560)"/>
<path d="M0 0 C0.66 0 1.32 0 2 0 C2 0.99 2 1.98 2 3 C0.35 3.66 -1.3 4.32 -3 5 C-1.625 2.5 -1.625 2.5 0 0 Z " fill="#0A3B00" transform="translate(186,555)"/>
<path d="M0 0 C2 1 2 1 2 1 Z " fill="#0D3D00" transform="translate(188,558)"/>
<path d="M0 0 C2 1 2 1 2 1 Z " fill="#104000" transform="translate(179,557)"/>
<path d="" fill="#103A00" transform="translate(0,0)"/>
<path d="" fill="#004000" transform="translate(0,0)"/>
</svg>
